<svg version="1.1" viewBox="0.0 0.0 960.0 720.0" fill="none" stroke="none" stroke-linecap="square" stroke-miterlimit="10" xmlns:xlink="http://www.w3.org/1999/xlink" xmlns="http://www.w3.org/2000/svg"><clipPath id="p.0"><path d="m0 0l960.0 0l0 720.0l-960.0 0l0 -720.0z" clip-rule="nonzero"/></clipPath><g clip-path="url(#p.0)"><path fill="#000000" fill-opacity="0.0" d="m0 0l960.0 0l0 720.0l-960.0 0z" fill-rule="evenodd"/><path fill="#ff8f0c" d="m606.77954 88.7979l110.50391 96.20473l0 96.20471l-221.00784 -192.40944z" fill-rule="evenodd"/><path stroke="#000000" stroke-width="1.0" stroke-linejoin="round" stroke-linecap="butt" d="m606.77954 88.7979l110.50391 96.20473l0 96.20471l-221.00784 -192.40944z" fill-rule="evenodd"/><path fill="#e7b43b" d="m541.7323 107.41207l110.50391 96.20472l0 96.20474l-221.00787 -192.40945z" fill-rule="evenodd"/><path stroke="#000000" stroke-width="1.0" stroke-linejoin="round" stroke-linecap="butt" d="m541.7323 107.41207l110.50391 96.20472l0 96.20474l-221.00787 -192.40945z" fill-rule="evenodd"/><path fill="#9c1904" d="m474.72177 124.71916l110.50394 96.20473l0 96.20471l-221.00787 -192.40944z" fill-rule="evenodd"/><path stroke="#000000" stroke-width="1.0" stroke-linejoin="round" stroke-linecap="butt" d="m474.72177 124.71916l110.50394 96.20473l0 96.20471l-221.00787 -192.40944z" fill-rule="evenodd"/><path fill="#f64b31" d="m585.2257 317.9239l-115.40155 84.06299l-115.40158 0l230.80313 -168.12599z" fill-rule="evenodd"/><path stroke="#000000" stroke-width="1.0" stroke-linejoin="round" stroke-linecap="butt" d="m585.2257 317.9239l-115.40155 84.06299l-115.40158 0l230.80313 -168.12599z" fill-rule="evenodd"/><path fill="#ffcb4b" d="m652.2362 300.6168l-115.40155 84.06299l-115.40158 0l230.80313 -168.12598z" fill-rule="evenodd"/><path stroke="#000000" stroke-width="1.0" stroke-linejoin="round" stroke-linecap="butt" d="m652.2362 300.6168l-115.40155 84.06299l-115.40158 0l230.80313 -168.12598z" fill-rule="evenodd"/><path fill="#f1a93d" d="m717.28345 282.00262l-115.40155 84.06299l-115.40158 0l230.80313 -168.12598z" fill-rule="evenodd"/><path stroke="#000000" stroke-width="1.0" stroke-linejoin="round" stroke-linecap="butt" d="m717.28345 282.00262l-115.40155 84.06299l-115.40158 0l230.80313 -168.12598z" fill-rule="evenodd"/></g></svg>